<svg id="light" xmlns="http://www.w3.org/2000/svg" viewBox="0 0 888.52 687.25"><defs><style>.cls-1{fill:#e6e6e6;}.cls-2{fill:#4d42ff;}.cls-3{fill:#3f3d56;}.cls-4{isolation:isolate;opacity:0.2;}.cls-5{fill:#ffb8b8;}.cls-6{fill:#2f2e41;}.cls-7{fill:#ff6584;}.cls-8{fill:#f9a825;}</style></defs><path class="cls-1" d="M668.77,182.59V144h-6v38.59a8,8,0,1,0,6,0Z"/><path class="cls-1" d="M682.77,572h-41V74h-16V572h-41a37,37,0,0,0-37,37h172a37,37,0,0,0-37-37Z"/><path class="cls-2" d="M547.85,148H719.69L709.18,16.66A18.2,18.2,0,0,0,691.13,0H576.41a18.2,18.2,0,0,0-18,16.66Z"/><path class="cls-3" d="M61.1,457.54H585.58V404c0-144.6-117.64-262.24-262.24-262.24S61.1,259.39,61.1,404Z"/><path class="cls-4" d="M61.1,457.54H585.58V404c0-144.6-117.64-262.24-262.24-262.24S61.1,259.39,61.1,404Z"/><path class="cls-2" d="M129.07,476.07H532.7a81.09,81.09,0,0,0-81-79.63H210.07A81.1,81.1,0,0,0,129.07,476.07Z"/><circle class="cls-3" cx="81.01" cy="386.83" r="81.01"/><circle class="cls-3" cx="572.53" cy="386.83" r="81.01"/><path class="cls-3" d="M511.44,428v30.2H137.3V428H53.55V575.24a34,34,0,0,0,34,34H561.18a34,34,0,0,0,34-34h0V428Z"/><circle class="cls-4" cx="81.01" cy="386.83" r="16.48"/><circle class="cls-4" cx="572.53" cy="386.83" r="16.48"/><path class="cls-5" d="M353.18,132.5s1.62,30.77,13,37.25,0,50.21,0,50.21l-53.46,1.62-3.23-51.83s6.47-21.06,3.23-30.77S353.18,132.5,353.18,132.5Z"/><polygon class="cls-5" points="413.11 560.1 393.67 582.78 424.45 611.93 440.64 579.54 413.11 560.1"/><polygon class="cls-5" points="275.43 560.1 294.87 582.78 264.09 611.93 247.9 579.54 275.43 560.1"/><path class="cls-6" d="M402.58,345.49s116.62,38.87,110.14,76.13S456,590.07,456,590.07s-27.54,0-48.59-29.16L422,528.52s-6.48-17.82,4.86-21.06,17.81-59.93,17.81-59.93-82.6-6.48-100.42-37.25l-32.39-77.75Z"/><path class="cls-6" d="M286,345.49s-116.62,38.87-110.14,76.13,56.69,168.45,56.69,168.45,27.53,0,48.59-29.16l-14.58-32.39s6.48-17.82-4.86-21.06-17.81-59.93-17.81-59.93,82.6-6.48,100.42-37.25l32.39-77.75Z"/><path class="cls-6" d="M418.78,599.79s16.19-14.58,17.81-3.24S435,653.24,435,653.24s16.2,34-8.09,34-35.64-25.92-32.4-51.83-11.34-35.63-11.34-35.63-17.81-35.64,0-38.88,24.3,4.86,24.3,4.86S401,594.93,418.78,599.79Z"/><path class="cls-6" d="M269.76,599.79s-16.19-14.58-17.81-3.24,1.62,56.69,1.62,56.69-16.2,34,8.09,34,35.64-25.92,32.4-51.83,11.34-35.63,11.34-35.63,17.81-35.64,0-38.88-24.3,4.86-24.3,4.86S287.58,594.93,269.76,599.79Z"/><circle class="cls-5" cx="328.07" cy="113.87" r="37.25"/><path class="cls-1" d="M333.74,177.85,311.07,160,256,186l-1.61,147.39s-34,16.2-24.3,37.26c0,0,29.15,6.47,42.11,19.43s85.85-4.86,116.62-14.58,38.87-21.05,38.87-21.05l-30.77-43.73L414.73,198.9l-55.07-37Z"/><path class="cls-6" d="M373.36,88.51a33.6,33.6,0,0,1-2.22-3.44c-1.15-2.82.67-6.13-1-8.76s-6.16-3.25-9.17-5.07c-4.63-2.8-5.47-8.31-9.81-11.4-3.13-2.23-7.58-2.83-11.76-2.71s-8.3.89-12.48,1a37.73,37.73,0,0,1-16.38-3.35l3.09,6a30.81,30.81,0,0,1-9.68-3.92c-1.37,1.69,1.13,4.26-.42,5.84a5,5,0,0,1-2.18,1,52.33,52.33,0,0,0-16.54,8.06A8.42,8.42,0,0,0,282,74.72c-.81,1.78-.09,3.75-.15,5.64-.11,3.44-2.74,6.44-4.61,9.54s-2.87,7.12-.1,9.75c.67.54,1.32,1.11,1.93,1.71,2.77,3.26-2.13,8,.23,11.52,1,1.5,3.13,2.26,5,3.15a19.83,19.83,0,0,1,8.47,7.55l-1.42-10.42a1.72,1.72,0,0,1,.28-1.52c.69-.7,2.13-.42,3.08-.89s1.13-1.68,1.09-2.66l-.32-7.58c-.15-3.4-.19-3.85,2.32-6.6C299.51,92,302.27,90.83,305,90c6.33-2,13.13-2.62,19.86-3.28,7.81-.76,16.6-4.55,22.66-.53,5,3.29,6.62,8.71,9,13.51,2.15,4.31,7.67,17,12.26,10.14C371.71,105.5,376.12,93.32,373.36,88.51Z"/><path class="cls-3" d="M334.47,103.06a.58.58,0,0,0-.58.58v15.6a.58.58,0,0,0,.58.58h26.85a.58.58,0,0,0,.58-.58v-15.6a.58.58,0,0,0-.58-.58Z"/><path class="cls-7" d="M337.47,104.44a1.08,1.08,0,0,0-1.08,1.08v11.84a1.08,1.08,0,0,0,1.08,1.08h20.85a1.09,1.09,0,0,0,1.08-1.08V105.52a1.09,1.09,0,0,0-1.08-1.08Z"/><rect class="cls-3" x="320.78" y="108.2" width="13.99" height="3.24"/><path class="cls-3" d="M296.45,103.06a.58.58,0,0,0-.58.58v15.6a.58.58,0,0,0,.58.58H323.3a.59.59,0,0,0,.58-.58v-15.6a.59.59,0,0,0-.58-.58Z"/><path class="cls-2" d="M299.45,104.44a1.08,1.08,0,0,0-1.08,1.08v11.84a1.08,1.08,0,0,0,1.08,1.08H320.3a1.07,1.07,0,0,0,1.07-1.08V105.52a1.07,1.07,0,0,0-1.07-1.08Z"/><path class="cls-3" d="M281.77,297.75h93a14,14,0,0,1,14,14h-121A14,14,0,0,1,281.77,297.75Z"/><path class="cls-8" d="M381.27,296.75a4.84,4.84,0,0,0-1.6.27,3,3,0,0,0-5.9.73v0a6,6,0,0,0-1.1.23,3,3,0,0,0-1.48-1.91,5,5,0,0,0,2.16-2.37,4,4,0,0,0,.8-8,4.31,4.31,0,0,0-.88,0,4.84,4.84,0,0,0-1.6.27,3,3,0,0,0-5.82,1.37,2.5,2.5,0,0,0,.07.26,2.88,2.88,0,0,0-.34.27,2.84,2.84,0,0,0-2.05-.68,5,5,0,0,0-9.68,1.55,5.24,5.24,0,0,0-1.18.23,2.84,2.84,0,0,0-.17-.49,3.77,3.77,0,0,0,1.27-2.78,4.28,4.28,0,0,0-4.5-4,4.84,4.84,0,0,0-1.6.27,3,3,0,0,0-5.82,1.37,2.5,2.5,0,0,0,.07.26,5,5,0,0,0-2.14,3.87l-.13.1a3.15,3.15,0,0,0,.12-.87,4.28,4.28,0,0,0-4.5-4,4.84,4.84,0,0,0-1.6.27,3,3,0,0,0-5.82,1.37,2.5,2.5,0,0,0,.07.26,5,5,0,0,0-1.27,6.94,5.24,5.24,0,0,0,1.27,1.26,2.78,2.78,0,0,0,0,1.8,5.06,5.06,0,0,0-1.28,1.29,3,3,0,0,0-5.84.5,4.85,4.85,0,0,0-1.29-.52,5,5,0,0,0,1.84-2.18,4,4,0,0,0,.8-8,4.31,4.31,0,0,0-.88,0,4.8,4.8,0,0,0-1.6.27,3,3,0,0,0-5.82,1.37,2.5,2.5,0,0,0,.07.26l-.18.14c-.16,0-.31,0-.47,0a4.8,4.8,0,0,0-1.6.27c0-.07-.05-.14-.07-.22a3,3,0,0,0-2.26-3.5,2.75,2.75,0,0,0-.81-.06,5,5,0,1,0-7.85,5.56,5.87,5.87,0,0,0-1,.22,3,3,0,0,0-3.59-2.19,3.13,3.13,0,0,0-1.17.58,4.67,4.67,0,0,0-3.64-1.66,4.8,4.8,0,0,0-1.6.27,3,3,0,0,0-5.82,1.37,2.5,2.5,0,0,0,.07.26,5,5,0,0,0-2.15,4.1v.05a4.17,4.17,0,0,0-2.1.22,3,3,0,0,0-5.82,1.37,2.5,2.5,0,0,0,.07.26,5,5,0,0,0,3.94,9,5,5,0,0,0,9.41,1.28,31.37,31.37,0,0,0,10.8-.49,5,5,0,0,0,9.28.33,4.79,4.79,0,0,0,2.1-.52,5,5,0,0,0,8.9-.48,4.85,4.85,0,0,1,5.42,3,7.78,7.78,0,0,1,5.74-3.18,4.87,4.87,0,0,0,5.42-2.07,5,5,0,0,0,9.42,3.24,4.79,4.79,0,0,0,2.1-.52,5,5,0,0,0,8.9-.48,4.79,4.79,0,0,0,2.1-.52,4.94,4.94,0,0,0,6.73,1.9,5.4,5.4,0,0,0,.68-.46,5,5,0,0,0,8.91,2.07,5,5,0,0,0,7-.93,4.68,4.68,0,0,0,.62-1.06,4,4,0,0,0,.8-8,3.7,3.7,0,0,0-.88,0Zm-89.38-2.06s0,0,0,.07h-.11a3.42,3.42,0,0,0-.45,0l0-.05ZM333.67,293a1.15,1.15,0,0,0-.06-.17,5,5,0,0,0,1.74-2.11,4.67,4.67,0,0,0,3.48-1.57,2.78,2.78,0,0,0-.06.58,2.74,2.74,0,0,0,.15.9,5,5,0,0,0-1.86,2.43,4.94,4.94,0,0,0-3.39-.06Zm29.95.38a1.2,1.2,0,0,0,0-.19,2.34,2.34,0,0,0,.38,0,5,5,0,0,0,1,1.77l-.29.07A3,3,0,0,0,363.62,293.4Z"/><path class="cls-3" d="M277.84,302.75a10.44,10.44,0,0,0-10.44,10.44c0,.19,0,.37,0,.56l6.77,93.12a10.43,10.43,0,0,0,10.42,9.88h87.31a10.45,10.45,0,0,0,10.43-9.88l6.77-93.12a10.42,10.42,0,0,0-9.86-11l-.56,0Z"/><rect class="cls-2" x="282.77" y="302.75" width="6" height="114"/><rect class="cls-2" x="299.77" y="302.75" width="6" height="114"/><rect class="cls-2" x="316.77" y="302.75" width="6" height="114"/><rect class="cls-2" x="333.77" y="302.75" width="6" height="114"/><rect class="cls-2" x="350.77" y="302.75" width="6" height="114"/><rect class="cls-2" x="367.77" y="302.75" width="6" height="114"/><path class="cls-5" d="M367.76,359.26,348.32,370.6s-47,38.87-14.58,45.35,40.49-27.54,40.49-27.54l11.34-13Z"/><path class="cls-5" d="M275.43,351.16l19.44,11.34s47,38.87,14.58,45.35S269,380.31,269,380.31l-11.34-12.95Z"/><path class="cls-1" d="M393.67,197.29l21.06,1.61s16.19,14.58,14.57,34c0,0,14.58,42.11,11.34,59.93,0,0,3.24,29.15-1.62,40.49s-45.35,55.07-45.35,55.07S356.42,359.26,358,357.64l48.59-48.59-24.3-32.4Z"/><path class="cls-1" d="M256,186l-.81.81s-36.44,15.38-34.82,34.82c0,0-14.58,42.11-11.34,59.93,0,0-3.24,29.16,1.62,40.49S256,377.07,256,377.07s37.26-29.15,35.64-30.77L243,297.71l24.29-32.4Z"/></svg>